{
	"asset":{
		"generator":"Khronos glTF Blender I/O v4.2.83",
		"version":"2.0"
	},
	"scene":0,
	"scenes":[
		{
			"name":"Scene",
			"nodes":[
				0,
				1,
				2,
				3,
				4,
				5,
				6,
				7,
				8,
				9,
				10
			]
		}
	],
	"nodes":[
		{
			"mesh":0,
			"name":"ED_profile_CURVE"
		},
		{
			"mesh":1,
			"name":"EA_profile_CURVE"
		},
		{
			"mesh":2,
			"name":"EB_profile_CURVE"
		},
		{
			"mesh":3,
			"name":"EC_profile_CURVE"
		},
		{
			"mesh":4,
			"name":"EE_profile_CURVE"
		},
		{
			"mesh":5,
			"name":"EF_profile_CURVE"
		},
		{
			"mesh":6,
			"name":"EG_profile_CURVE"
		},
		{
			"mesh":7,
			"name":"EH_profile_CURVE"
		},
		{
			"mesh":8,
			"name":"EI_profile_CURVE"
		},
		{
			"mesh":9,
			"name":"EK_profile_CURVE"
		},
		{
			"mesh":10,
			"name":"EM_profile_CURVE"
		}
	],
	"meshes":[
		{
			"name":"Mesh",
			"primitives":[
				{
					"attributes":{
						"POSITION":0
					},
					"indices":1,
					"mode":1
				}
			]
		},
		{
			"name":"Mesh",
			"primitives":[
				{
					"attributes":{
						"POSITION":2
					},
					"indices":3,
					"mode":1
				}
			]
		},
		{
			"name":"Mesh",
			"primitives":[
				{
					"attributes":{
						"POSITION":4
					},
					"indices":5,
					"mode":1
				}
			]
		},
		{
			"name":"Mesh",
			"primitives":[
				{
					"attributes":{
						"POSITION":6
					},
					"indices":7,
					"mode":1
				}
			]
		},
		{
			"name":"Mesh",
			"primitives":[
				{
					"attributes":{
						"POSITION":8
					},
					"indices":9,
					"mode":1
				}
			]
		},
		{
			"name":"Mesh",
			"primitives":[
				{
					"attributes":{
						"POSITION":10
					},
					"indices":11,
					"mode":1
				}
			]
		},
		{
			"name":"Mesh",
			"primitives":[
				{
					"attributes":{
						"POSITION":12
					},
					"indices":13,
					"mode":1
				}
			]
		},
		{
			"name":"Mesh",
			"primitives":[
				{
					"attributes":{
						"POSITION":14
					},
					"indices":1,
					"mode":1
				}
			]
		},
		{
			"name":"Mesh",
			"primitives":[
				{
					"attributes":{
						"POSITION":15
					},
					"indices":16,
					"mode":1
				}
			]
		},
		{
			"name":"Mesh",
			"primitives":[
				{
					"attributes":{
						"POSITION":17
					},
					"indices":18,
					"mode":1
				}
			]
		},
		{
			"name":"Mesh",
			"primitives":[
				{
					"attributes":{
						"POSITION":19
					},
					"indices":20,
					"mode":1
				}
			]
		}
	],
	"accessors":[
		{
			"bufferView":0,
			"componentType":5126,
			"count":86,
			"max":[
				6.725908292537497e-07,
				1.0058283805847168e-07,
				-5.879742900243359e-14
			],
			"min":[
				6.682440698568826e-07,
				-0.025455109775066376,
				-0.03233478218317032
			],
			"type":"VEC3"
		},
		{
			"bufferView":1,
			"componentType":5123,
			"count":172,
			"type":"SCALAR"
		},
		{
			"bufferView":2,
			"componentType":5126,
			"count":100,
			"max":[
				6.729980555064685e-07,
				1.0104849934577942e-07,
				6.10411079833284e-05
			],
			"min":[
				2.220446049250313e-16,
				-0.025455109775066376,
				-0.03233478218317032
			],
			"type":"VEC3"
		},
		{
			"bufferView":3,
			"componentType":5123,
			"count":200,
			"type":"SCALAR"
		},
		{
			"bufferView":4,
			"componentType":5126,
			"count":103,
			"max":[
				6.72568660320394e-07,
				1.0058283805847168e-07,
				-3.725290298461914e-09
			],
			"min":[
				6.66814969463303e-07,
				-0.025455109775066376,
				-0.03233478218317032
			],
			"type":"VEC3"
		},
		{
			"bufferView":5,
			"componentType":5123,
			"count":206,
			"type":"SCALAR"
		},
		{
			"bufferView":6,
			"componentType":5126,
			"count":87,
			"max":[
				1.0625692681287546e-07,
				-3.2526753784623e-05,
				9.03010368347168e-06
			],
			"min":[
				1.0257712546035691e-07,
				-0.025455109775066376,
				-0.03233478218317032
			],
			"type":"VEC3"
		},
		{
			"bufferView":7,
			"componentType":5123,
			"count":174,
			"type":"SCALAR"
		},
		{
			"bufferView":8,
			"componentType":5126,
			"count":74,
			"max":[
				6.727563004460535e-07,
				9.685754776000977e-08,
				-5.879742900243359e-14
			],
			"min":[
				6.688234179819119e-07,
				-0.025455109775066376,
				-0.03233478218317032
			],
			"type":"VEC3"
		},
		{
			"bufferView":9,
			"componentType":5123,
			"count":148,
			"type":"SCALAR"
		},
		{
			"bufferView":10,
			"componentType":5126,
			"count":6,
			"max":[
				1.0693201879519165e-10,
				9.96515154838562e-08,
				1.7276462769833425e-21
			],
			"min":[
				-1.9761969838327786e-14,
				-0.025455109775066376,
				-0.03233478218317032
			],
			"type":"VEC3"
		},
		{
			"bufferView":11,
			"componentType":5123,
			"count":12,
			"type":"SCALAR"
		},
		{
			"bufferView":12,
			"componentType":5126,
			"count":113,
			"max":[
				0,
				1.0058283805847168e-07,
				0
			],
			"min":[
				0,
				-0.025455109775066376,
				-0.03233478218317032
			],
			"type":"VEC3"
		},
		{
			"bufferView":13,
			"componentType":5123,
			"count":226,
			"type":"SCALAR"
		},
		{
			"bufferView":14,
			"componentType":5126,
			"count":86,
			"max":[
				3.5406899634438105e-11,
				1.0058283805847168e-07,
				1.708234593672839e-21
			],
			"min":[
				-1.409837632922184e-12,
				-0.025455109775066376,
				-0.03233478218317032
			],
			"type":"VEC3"
		},
		{
			"bufferView":15,
			"componentType":5126,
			"count":124,
			"max":[
				6.72564169690304e-07,
				1.0151416063308716e-07,
				-5.879742900243359e-14
			],
			"min":[
				6.688234179819119e-07,
				-0.025455109775066376,
				-0.03233478218317032
			],
			"type":"VEC3"
		},
		{
			"bufferView":16,
			"componentType":5123,
			"count":248,
			"type":"SCALAR"
		},
		{
			"bufferView":17,
			"componentType":5126,
			"count":77,
			"max":[
				6.727436812070664e-07,
				1.0104849934577942e-07,
				0.003762931330129504
			],
			"min":[
				6.688234179819119e-07,
				-0.025459900498390198,
				-0.03233478218317032
			],
			"type":"VEC3"
		},
		{
			"bufferView":18,
			"componentType":5123,
			"count":154,
			"type":"SCALAR"
		},
		{
			"bufferView":19,
			"componentType":5126,
			"count":39,
			"max":[
				1.443811085577114e-18,
				9.96515154838562e-08,
				8.344650268554688e-06
			],
			"min":[
				0,
				-0.025455109775066376,
				-0.03233478218317032
			],
			"type":"VEC3"
		},
		{
			"bufferView":20,
			"componentType":5123,
			"count":78,
			"type":"SCALAR"
		}
	],
	"bufferViews":[
		{
			"buffer":0,
			"byteLength":1032,
			"byteOffset":0,
			"target":34962
		},
		{
			"buffer":0,
			"byteLength":344,
			"byteOffset":1032,
			"target":34963
		},
		{
			"buffer":0,
			"byteLength":1200,
			"byteOffset":1376,
			"target":34962
		},
		{
			"buffer":0,
			"byteLength":400,
			"byteOffset":2576,
			"target":34963
		},
		{
			"buffer":0,
			"byteLength":1236,
			"byteOffset":2976,
			"target":34962
		},
		{
			"buffer":0,
			"byteLength":412,
			"byteOffset":4212,
			"target":34963
		},
		{
			"buffer":0,
			"byteLength":1044,
			"byteOffset":4624,
			"target":34962
		},
		{
			"buffer":0,
			"byteLength":348,
			"byteOffset":5668,
			"target":34963
		},
		{
			"buffer":0,
			"byteLength":888,
			"byteOffset":6016,
			"target":34962
		},
		{
			"buffer":0,
			"byteLength":296,
			"byteOffset":6904,
			"target":34963
		},
		{
			"buffer":0,
			"byteLength":72,
			"byteOffset":7200,
			"target":34962
		},
		{
			"buffer":0,
			"byteLength":24,
			"byteOffset":7272,
			"target":34963
		},
		{
			"buffer":0,
			"byteLength":1356,
			"byteOffset":7296,
			"target":34962
		},
		{
			"buffer":0,
			"byteLength":452,
			"byteOffset":8652,
			"target":34963
		},
		{
			"buffer":0,
			"byteLength":1032,
			"byteOffset":9104,
			"target":34962
		},
		{
			"buffer":0,
			"byteLength":1488,
			"byteOffset":10136,
			"target":34962
		},
		{
			"buffer":0,
			"byteLength":496,
			"byteOffset":11624,
			"target":34963
		},
		{
			"buffer":0,
			"byteLength":924,
			"byteOffset":12120,
			"target":34962
		},
		{
			"buffer":0,
			"byteLength":308,
			"byteOffset":13044,
			"target":34963
		},
		{
			"buffer":0,
			"byteLength":468,
			"byteOffset":13352,
			"target":34962
		},
		{
			"buffer":0,
			"byteLength":156,
			"byteOffset":13820,
			"target":34963
		}
	],
	"buffers":[
		{
			"byteLength":13976,
			"uri":"data:application/octet-stream;base64,"
		}
	]
}
