{
	"asset":{
		"generator":"Khronos glTF Blender I/O v4.2.83",
		"version":"2.0"
	},
	"scene":0,
	"scenes":[
		{
			"name":"Scene",
			"nodes":[
				0,
				1,
				2,
				3,
				4,
				5,
				6,
				7,
				8,
				9,
				10
			]
		}
	],
	"nodes":[
		{
			"mesh":0,
			"name":"ED_profile_CURVE",
			"rotation":[
				0,
				-1,
				0,
				4.371138828673793e-08
			]
		},
		{
			"mesh":1,
			"name":"EA_profile_CURVE",
			"rotation":[
				0,
				-1,
				0,
				4.371138828673793e-08
			]
		},
		{
			"mesh":2,
			"name":"EB_profile_CURVE",
			"rotation":[
				0,
				0.7071068286895752,
				0,
				0.7071067094802856
			]
		},
		{
			"mesh":3,
			"name":"EC_profile_CURVE",
			"rotation":[
				0,
				-1,
				0,
				4.371138828673793e-08
			]
		},
		{
			"mesh":4,
			"name":"EE_profile_CURVE",
			"rotation":[
				0,
				-1,
				0,
				4.371138828673793e-08
			]
		},
		{
			"mesh":5,
			"name":"EF_profile_CURVE",
			"rotation":[
				0,
				-1,
				0,
				4.371138828673793e-08
			]
		},
		{
			"mesh":6,
			"name":"EG_profile_CURVE"
		},
		{
			"mesh":7,
			"name":"EH_profile_CURVE",
			"rotation":[
				0,
				-1,
				0,
				4.371138828673793e-08
			]
		},
		{
			"mesh":8,
			"name":"EI_profile_CURVE",
			"rotation":[
				0,
				-1,
				0,
				4.371138828673793e-08
			]
		},
		{
			"mesh":9,
			"name":"EK_profile_CURVE",
			"rotation":[
				0,
				-1,
				0,
				4.371138828673793e-08
			]
		},
		{
			"mesh":10,
			"name":"EM_profile_CURVE"
		}
	],
	"meshes":[
		{
			"name":"Mesh",
			"primitives":[
				{
					"attributes":{
						"POSITION":0
					},
					"indices":1,
					"mode":1
				}
			]
		},
		{
			"name":"Mesh",
			"primitives":[
				{
					"attributes":{
						"POSITION":2
					},
					"indices":3,
					"mode":1
				}
			]
		},
		{
			"name":"Mesh",
			"primitives":[
				{
					"attributes":{
						"POSITION":4
					},
					"indices":5,
					"mode":1
				}
			]
		},
		{
			"name":"Mesh",
			"primitives":[
				{
					"attributes":{
						"POSITION":6
					},
					"indices":7,
					"mode":1
				}
			]
		},
		{
			"name":"Mesh",
			"primitives":[
				{
					"attributes":{
						"POSITION":8
					},
					"indices":9,
					"mode":1
				}
			]
		},
		{
			"name":"Mesh",
			"primitives":[
				{
					"attributes":{
						"POSITION":10
					},
					"indices":11,
					"mode":1
				}
			]
		},
		{
			"name":"Mesh",
			"primitives":[
				{
					"attributes":{
						"POSITION":12
					},
					"indices":13,
					"mode":1
				}
			]
		},
		{
			"name":"Mesh",
			"primitives":[
				{
					"attributes":{
						"POSITION":14
					},
					"indices":1,
					"mode":1
				}
			]
		},
		{
			"name":"Mesh",
			"primitives":[
				{
					"attributes":{
						"POSITION":15
					},
					"indices":16,
					"mode":1
				}
			]
		},
		{
			"name":"Mesh",
			"primitives":[
				{
					"attributes":{
						"POSITION":17
					},
					"indices":18,
					"mode":1
				}
			]
		},
		{
			"name":"Mesh",
			"primitives":[
				{
					"attributes":{
						"POSITION":19
					},
					"indices":18,
					"mode":1
				}
			]
		}
	],
	"accessors":[
		{
			"bufferView":0,
			"componentType":5126,
			"count":86,
			"max":[
				-6.660483222731273e-07,
				1.0058283805847168e-07,
				-1.2437867553671822e-06
			],
			"min":[
				-6.682557796011679e-07,
				-0.02432085946202278,
				-0.04941772297024727
			],
			"type":"VEC3"
		},
		{
			"bufferView":1,
			"componentType":5123,
			"count":172,
			"type":"SCALAR"
		},
		{
			"bufferView":2,
			"componentType":5126,
			"count":99,
			"max":[
				0,
				1.0104849934577942e-07,
				0
			],
			"min":[
				-6.729927122250956e-07,
				-0.02432085946202278,
				-0.04928132891654968
			],
			"type":"VEC3"
		},
		{
			"bufferView":3,
			"componentType":5123,
			"count":198,
			"type":"SCALAR"
		},
		{
			"bufferView":4,
			"componentType":5126,
			"count":102,
			"max":[
				0,
				1.0058283805847168e-07,
				6.725641128468851e-07
			],
			"min":[
				-0.04920269176363945,
				-0.02432085946202278,
				6.659489599769586e-07
			],
			"type":"VEC3"
		},
		{
			"bufferView":5,
			"componentType":5123,
			"count":204,
			"type":"SCALAR"
		},
		{
			"bufferView":6,
			"componentType":5126,
			"count":75,
			"max":[
				-1.0192665200747797e-07,
				-3.2526753784623e-05,
				0
			],
			"min":[
				-1.0257712546035691e-07,
				-0.024376071989536285,
				-0.04952828958630562
			],
			"type":"VEC3"
		},
		{
			"bufferView":7,
			"componentType":5123,
			"count":150,
			"type":"SCALAR"
		},
		{
			"bufferView":8,
			"componentType":5126,
			"count":50,
			"max":[
				-6.682359980914043e-07,
				9.685754776000977e-08,
				0
			],
			"min":[
				-6.688234179819119e-07,
				-0.02432086318731308,
				-0.04941772297024727
			],
			"type":"VEC3"
		},
		{
			"bufferView":9,
			"componentType":5123,
			"count":100,
			"type":"SCALAR"
		},
		{
			"bufferView":10,
			"componentType":5126,
			"count":6,
			"max":[
				4.301455192035064e-09,
				9.96515154838562e-08,
				-6.186981482692033e-11
			],
			"min":[
				0,
				-0.02432085946202278,
				-0.04920268803834915
			],
			"type":"VEC3"
		},
		{
			"bufferView":11,
			"componentType":5123,
			"count":12,
			"type":"SCALAR"
		},
		{
			"bufferView":12,
			"componentType":5126,
			"count":113,
			"max":[
				0,
				1.0058283805847168e-07,
				0.04920268803834915
			],
			"min":[
				0,
				-0.02432085946202278,
				0
			],
			"type":"VEC3"
		},
		{
			"bufferView":13,
			"componentType":5123,
			"count":226,
			"type":"SCALAR"
		},
		{
			"bufferView":14,
			"componentType":5126,
			"count":86,
			"max":[
				4.301455192035064e-09,
				1.0058283805847168e-07,
				-6.186981482692033e-11
			],
			"min":[
				0,
				-0.02432085946202278,
				-0.04920268803834915
			],
			"type":"VEC3"
		},
		{
			"bufferView":15,
			"componentType":5126,
			"count":124,
			"max":[
				-6.682627144982689e-07,
				1.0151416063308716e-07,
				0
			],
			"min":[
				-6.688234179819119e-07,
				-0.02432085946202278,
				-0.04920268803834915
			],
			"type":"VEC3"
		},
		{
			"bufferView":16,
			"componentType":5123,
			"count":248,
			"type":"SCALAR"
		},
		{
			"bufferView":17,
			"componentType":5126,
			"count":53,
			"max":[
				-6.682582807115978e-07,
				1.0104849934577942e-07,
				0
			],
			"min":[
				-6.688234179819119e-07,
				-0.02432085946202278,
				-0.04920268803834915
			],
			"type":"VEC3"
		},
		{
			"bufferView":18,
			"componentType":5123,
			"count":106,
			"type":"SCALAR"
		},
		{
			"bufferView":19,
			"componentType":5126,
			"count":53,
			"max":[
				0,
				9.96515154838562e-08,
				0.04920268803834915
			],
			"min":[
				0,
				-0.02432085946202278,
				-1.1238249220113516e-10
			],
			"type":"VEC3"
		}
	],
	"bufferViews":[
		{
			"buffer":0,
			"byteLength":1032,
			"byteOffset":0,
			"target":34962
		},
		{
			"buffer":0,
			"byteLength":344,
			"byteOffset":1032,
			"target":34963
		},
		{
			"buffer":0,
			"byteLength":1188,
			"byteOffset":1376,
			"target":34962
		},
		{
			"buffer":0,
			"byteLength":396,
			"byteOffset":2564,
			"target":34963
		},
		{
			"buffer":0,
			"byteLength":1224,
			"byteOffset":2960,
			"target":34962
		},
		{
			"buffer":0,
			"byteLength":408,
			"byteOffset":4184,
			"target":34963
		},
		{
			"buffer":0,
			"byteLength":900,
			"byteOffset":4592,
			"target":34962
		},
		{
			"buffer":0,
			"byteLength":300,
			"byteOffset":5492,
			"target":34963
		},
		{
			"buffer":0,
			"byteLength":600,
			"byteOffset":5792,
			"target":34962
		},
		{
			"buffer":0,
			"byteLength":200,
			"byteOffset":6392,
			"target":34963
		},
		{
			"buffer":0,
			"byteLength":72,
			"byteOffset":6592,
			"target":34962
		},
		{
			"buffer":0,
			"byteLength":24,
			"byteOffset":6664,
			"target":34963
		},
		{
			"buffer":0,
			"byteLength":1356,
			"byteOffset":6688,
			"target":34962
		},
		{
			"buffer":0,
			"byteLength":452,
			"byteOffset":8044,
			"target":34963
		},
		{
			"buffer":0,
			"byteLength":1032,
			"byteOffset":8496,
			"target":34962
		},
		{
			"buffer":0,
			"byteLength":1488,
			"byteOffset":9528,
			"target":34962
		},
		{
			"buffer":0,
			"byteLength":496,
			"byteOffset":11016,
			"target":34963
		},
		{
			"buffer":0,
			"byteLength":636,
			"byteOffset":11512,
			"target":34962
		},
		{
			"buffer":0,
			"byteLength":212,
			"byteOffset":12148,
			"target":34963
		},
		{
			"buffer":0,
			"byteLength":636,
			"byteOffset":12360,
			"target":34962
		}
	],
	"buffers":[
		{
			"byteLength":12996,
			"uri":"data:application/octet-stream;base64,"
		}
	]
}
