{
	"asset":{
		"generator":"Khronos glTF Blender I/O v4.2.83",
		"version":"2.0"
	},
	"scene":0,
	"scenes":[
		{
			"name":"Scene",
			"nodes":[
				0,
				1,
				2,
				3,
				4,
				5,
				6,
				7,
				8,
				9,
				10
			]
		}
	],
	"nodes":[
		{
			"mesh":0,
			"name":"ED_profile_CURVE"
		},
		{
			"mesh":1,
			"name":"EA_profile_CURVE"
		},
		{
			"mesh":2,
			"name":"EB_profile_CURVE"
		},
		{
			"mesh":3,
			"name":"EC_profile_CURVE"
		},
		{
			"mesh":4,
			"name":"EE_profile_CURVE"
		},
		{
			"mesh":5,
			"name":"EF_profile_CURVE"
		},
		{
			"mesh":6,
			"name":"EG_profile_CURVE"
		},
		{
			"mesh":7,
			"name":"EH_profile_CURVE"
		},
		{
			"mesh":8,
			"name":"EI_profile_CURVE"
		},
		{
			"mesh":9,
			"name":"EK_profile_CURVE"
		},
		{
			"mesh":10,
			"name":"EM_profile_CURVE"
		}
	],
	"meshes":[
		{
			"name":"Mesh",
			"primitives":[
				{
					"attributes":{
						"POSITION":0
					},
					"indices":1,
					"mode":1
				}
			]
		},
		{
			"name":"Mesh",
			"primitives":[
				{
					"attributes":{
						"POSITION":2
					},
					"indices":3,
					"mode":1
				}
			]
		},
		{
			"name":"Mesh",
			"primitives":[
				{
					"attributes":{
						"POSITION":4
					},
					"indices":5,
					"mode":1
				}
			]
		},
		{
			"name":"Mesh",
			"primitives":[
				{
					"attributes":{
						"POSITION":6
					},
					"indices":7,
					"mode":1
				}
			]
		},
		{
			"name":"Mesh",
			"primitives":[
				{
					"attributes":{
						"POSITION":8
					},
					"indices":9,
					"mode":1
				}
			]
		},
		{
			"name":"Mesh",
			"primitives":[
				{
					"attributes":{
						"POSITION":10
					},
					"indices":11,
					"mode":1
				}
			]
		},
		{
			"name":"Mesh",
			"primitives":[
				{
					"attributes":{
						"POSITION":12
					},
					"indices":13,
					"mode":1
				}
			]
		},
		{
			"name":"Mesh",
			"primitives":[
				{
					"attributes":{
						"POSITION":14
					},
					"indices":1,
					"mode":1
				}
			]
		},
		{
			"name":"Mesh",
			"primitives":[
				{
					"attributes":{
						"POSITION":15
					},
					"indices":16,
					"mode":1
				}
			]
		},
		{
			"name":"Mesh",
			"primitives":[
				{
					"attributes":{
						"POSITION":17
					},
					"indices":18,
					"mode":1
				}
			]
		},
		{
			"name":"Mesh",
			"primitives":[
				{
					"attributes":{
						"POSITION":19
					},
					"indices":18,
					"mode":1
				}
			]
		}
	],
	"accessors":[
		{
			"bufferView":0,
			"componentType":5126,
			"count":86,
			"max":[
				6.725642265337228e-07,
				1.0058283805847168e-07,
				-5.879742900243359e-14
			],
			"min":[
				6.682440698568826e-07,
				-0.02432085946202278,
				-0.03233478218317032
			],
			"type":"VEC3"
		},
		{
			"bufferView":1,
			"componentType":5123,
			"count":172,
			"type":"SCALAR"
		},
		{
			"bufferView":2,
			"componentType":5126,
			"count":100,
			"max":[
				6.729979418196308e-07,
				1.0104849934577942e-07,
				5.9396119468146935e-05
			],
			"min":[
				2.220446049250313e-16,
				-0.02432085946202278,
				-0.03233478218317032
			],
			"type":"VEC3"
		},
		{
			"bufferView":3,
			"componentType":5123,
			"count":200,
			"type":"SCALAR"
		},
		{
			"bufferView":4,
			"componentType":5126,
			"count":103,
			"max":[
				6.72568660320394e-07,
				1.0058283805847168e-07,
				-3.725290298461914e-09
			],
			"min":[
				6.66814969463303e-07,
				-0.02432085946202278,
				-0.03233478218317032
			],
			"type":"VEC3"
		},
		{
			"bufferView":5,
			"componentType":5123,
			"count":206,
			"type":"SCALAR"
		},
		{
			"bufferView":6,
			"componentType":5126,
			"count":75,
			"max":[
				1.0625699786714904e-07,
				-3.2526753784623e-05,
				9.90489570540376e-06
			],
			"min":[
				1.0257712546035691e-07,
				-0.024376071989536285,
				-0.03233478218317032
			],
			"type":"VEC3"
		},
		{
			"bufferView":7,
			"componentType":5123,
			"count":150,
			"type":"SCALAR"
		},
		{
			"bufferView":8,
			"componentType":5126,
			"count":50,
			"max":[
				6.72564169690304e-07,
				9.685754776000977e-08,
				-5.879742900243359e-14
			],
			"min":[
				6.688234179819119e-07,
				-0.02432086318731308,
				-0.03233478218317032
			],
			"type":"VEC3"
		},
		{
			"bufferView":9,
			"componentType":5123,
			"count":100,
			"type":"SCALAR"
		},
		{
			"bufferView":10,
			"componentType":5126,
			"count":6,
			"max":[
				1.0693201879519165e-10,
				9.96515154838562e-08,
				1.7276462769833425e-21
			],
			"min":[
				-1.9761969838327786e-14,
				-0.02432085946202278,
				-0.03233478218317032
			],
			"type":"VEC3"
		},
		{
			"bufferView":11,
			"componentType":5123,
			"count":12,
			"type":"SCALAR"
		},
		{
			"bufferView":12,
			"componentType":5126,
			"count":113,
			"max":[
				0,
				1.0058283805847168e-07,
				0
			],
			"min":[
				0,
				-0.02432085946202278,
				-0.03233478218317032
			],
			"type":"VEC3"
		},
		{
			"bufferView":13,
			"componentType":5123,
			"count":226,
			"type":"SCALAR"
		},
		{
			"bufferView":14,
			"componentType":5126,
			"count":86,
			"max":[
				3.5406899634438105e-11,
				1.0058283805847168e-07,
				1.708234593672839e-21
			],
			"min":[
				-1.409837632922184e-12,
				-0.02432085946202278,
				-0.03233478218317032
			],
			"type":"VEC3"
		},
		{
			"bufferView":15,
			"componentType":5126,
			"count":124,
			"max":[
				6.72564169690304e-07,
				1.0151416063308716e-07,
				-5.879742900243359e-14
			],
			"min":[
				6.688234179819119e-07,
				-0.02432085946202278,
				-0.03233478218317032
			],
			"type":"VEC3"
		},
		{
			"bufferView":16,
			"componentType":5123,
			"count":248,
			"type":"SCALAR"
		},
		{
			"bufferView":17,
			"componentType":5126,
			"count":53,
			"max":[
				6.72564169690304e-07,
				1.0104849934577942e-07,
				-5.879742900243359e-14
			],
			"min":[
				6.688234179819119e-07,
				-0.02432085946202278,
				-0.03233478218317032
			],
			"type":"VEC3"
		},
		{
			"bufferView":18,
			"componentType":5123,
			"count":106,
			"type":"SCALAR"
		},
		{
			"bufferView":19,
			"componentType":5126,
			"count":53,
			"max":[
				0,
				9.96515154838562e-08,
				8.344650268554688e-06
			],
			"min":[
				0,
				-0.02432085946202278,
				-0.03233478218317032
			],
			"type":"VEC3"
		}
	],
	"bufferViews":[
		{
			"buffer":0,
			"byteLength":1032,
			"byteOffset":0,
			"target":34962
		},
		{
			"buffer":0,
			"byteLength":344,
			"byteOffset":1032,
			"target":34963
		},
		{
			"buffer":0,
			"byteLength":1200,
			"byteOffset":1376,
			"target":34962
		},
		{
			"buffer":0,
			"byteLength":400,
			"byteOffset":2576,
			"target":34963
		},
		{
			"buffer":0,
			"byteLength":1236,
			"byteOffset":2976,
			"target":34962
		},
		{
			"buffer":0,
			"byteLength":412,
			"byteOffset":4212,
			"target":34963
		},
		{
			"buffer":0,
			"byteLength":900,
			"byteOffset":4624,
			"target":34962
		},
		{
			"buffer":0,
			"byteLength":300,
			"byteOffset":5524,
			"target":34963
		},
		{
			"buffer":0,
			"byteLength":600,
			"byteOffset":5824,
			"target":34962
		},
		{
			"buffer":0,
			"byteLength":200,
			"byteOffset":6424,
			"target":34963
		},
		{
			"buffer":0,
			"byteLength":72,
			"byteOffset":6624,
			"target":34962
		},
		{
			"buffer":0,
			"byteLength":24,
			"byteOffset":6696,
			"target":34963
		},
		{
			"buffer":0,
			"byteLength":1356,
			"byteOffset":6720,
			"target":34962
		},
		{
			"buffer":0,
			"byteLength":452,
			"byteOffset":8076,
			"target":34963
		},
		{
			"buffer":0,
			"byteLength":1032,
			"byteOffset":8528,
			"target":34962
		},
		{
			"buffer":0,
			"byteLength":1488,
			"byteOffset":9560,
			"target":34962
		},
		{
			"buffer":0,
			"byteLength":496,
			"byteOffset":11048,
			"target":34963
		},
		{
			"buffer":0,
			"byteLength":636,
			"byteOffset":11544,
			"target":34962
		},
		{
			"buffer":0,
			"byteLength":212,
			"byteOffset":12180,
			"target":34963
		},
		{
			"buffer":0,
			"byteLength":636,
			"byteOffset":12392,
			"target":34962
		}
	],
	"buffers":[
		{
			"byteLength":13028,
			"uri":"data:application/octet-stream;base64,"
		}
	]
}
